# This file uses centimeters as units for non-parametric coordinates.

mtllib Knife_02.mtl
g default
v -2.108684 -0.897354 -7.428811
v -2.557316 -0.448722 -7.428811
v 2.212549 -0.448722 -7.428811
v 1.763917 -0.897354 -7.428811
v -2.557316 0.448722 -7.428811
v -2.108684 0.897354 -7.428811
v 1.763917 0.897354 -7.428811
v 2.212549 0.448722 -7.428811
v -2.557316 0.448722 -24.100327
v -2.108684 0.897354 -24.100327
v -2.108684 0.448722 -24.578850
v 1.763917 0.448722 -24.578850
v 1.763917 0.897354 -24.100327
v 2.212549 0.448722 -24.100327
v -2.557316 -0.448722 -24.100327
v -2.108684 -0.448722 -24.578850
v -2.108684 -0.897354 -24.100327
v 1.763917 -0.897354 -24.100327
v 1.763917 -0.448722 -24.578850
v 2.212549 -0.448722 -24.100327
v -2.938437 -1.148480 -7.255024
v -3.579320 -0.574297 -7.255024
v 2.593671 -1.148480 -7.255024
v -3.579320 0.574297 -7.255024
v 3.234553 -0.574297 -7.255024
v 3.234553 0.574297 -7.255024
v -2.938437 1.148480 -7.255024
v 2.593671 1.148480 -7.255024
v -2.720798 -0.202236 -1.966262
v -2.770793 -0.152241 -1.966262
v 3.230009 -0.449077 -1.966262
v 3.180014 -0.499072 -1.966262
v -2.770793 -0.003277 -1.966262
v -2.720798 0.046718 -1.966262
v 3.180014 0.500928 -1.966262
v 3.230009 0.450933 -1.966262
v -3.220531 0.450933 -6.480468
v -3.170536 0.500928 -6.480468
v 3.023664 0.500928 -6.480468
v 3.073659 0.450933 -6.480468
v -3.220531 -0.449077 -6.480468
v -3.170536 -0.499072 -6.480468
v 3.023664 -0.499072 -6.480468
v 3.073659 -0.449077 -6.480468
v -2.537553 -0.202236 5.010128
v -2.589214 -0.152241 5.010128
v 3.437479 -0.499072 5.010128
v -2.589214 -0.003277 5.010128
v 3.489141 -0.449077 5.010128
v 3.489141 0.450933 5.010128
v -2.537553 0.046718 5.010128
v 3.437479 0.500928 5.010128
v -2.220382 -0.202236 11.485220
v -2.272975 -0.152241 11.485220
v 3.620131 -0.499072 11.485220
v -2.272975 -0.003277 11.485220
v 3.672725 -0.449077 11.485220
v 3.672725 0.450933 11.485220
v -2.220382 0.046718 11.485220
v 3.620131 0.500928 11.485220
v -3.220531 0.450933 -1.992655
v -3.170536 0.500927 -1.992655
v 3.180014 0.500928 -1.992655
v 3.230009 0.450933 -1.992655
v 3.230009 -0.449077 -1.992655
v 3.180014 -0.499072 -1.992655
v -3.170536 -0.499072 -1.992655
v -3.220531 -0.449078 -1.992655
v 0.400101 -0.499072 11.485220
v 0.347099 -0.499072 5.010128
v 0.259933 -0.499072 -1.966262
v 0.259933 -0.499072 -1.992655
v 0.259933 -0.499072 -6.480468
v 0.259933 0.500928 -6.480468
v 0.259933 0.500928 -1.992655
v 0.259933 0.500928 -1.966262
v 0.347099 0.500928 5.010128
v 0.400101 0.500928 11.485220
v -2.156690 -0.202236 17.577957
v -2.201249 -0.152241 17.577957
v 0.744096 -0.499072 17.758673
v -2.201249 -0.003277 17.577957
v 2.890435 -0.449077 17.577957
v 2.845876 -0.499072 17.577957
v 2.890435 0.450933 17.577957
v -2.156690 0.046718 17.577957
v 2.845876 0.500928 17.577957
v 0.744096 0.500928 17.758673
v -1.324821 -0.202236 21.526337
v -1.369380 -0.152241 21.526337
v 1.105526 -0.499072 21.603786
v -1.369380 -0.003277 21.526337
v 2.266534 -0.449077 21.526337
v 2.221974 -0.499072 21.526337
v 2.266534 0.450933 21.526337
v -1.324821 0.046718 21.526337
v 2.221974 0.500928 21.526337
v 1.105526 0.500928 21.603786
v 1.420719 -0.197272 24.491486
v 1.377250 -0.148499 24.491486
v 2.108500 -0.486854 24.541855
v 1.377250 -0.003174 24.491486
v 2.530938 -0.438081 24.317039
v 2.487468 -0.486854 24.317039
v 2.530938 0.439936 24.317039
v 1.420719 0.045599 24.491486
v 2.487468 0.488709 24.317039
v 2.108500 0.488709 24.541855
v 2.337346 0.000787 25.285343
v 2.497033 0.106675 25.297037
v 2.585020 0.105810 25.244841
v 2.337346 -0.036874 25.285343
v 2.497033 -0.101858 25.297037
v 2.585020 -0.102624 25.244841
v -3.589458 -0.777912 -6.662391
v -3.241008 -1.119578 -6.662391
v 2.995189 -1.119578 -6.662391
v 3.343638 -0.777912 -6.662391
v -3.241008 1.120506 -6.662391
v -3.589458 0.778840 -6.662391
v 3.343638 0.778840 -6.662391
v 2.995189 1.120506 -6.662391
v 0.304522 1.120506 -6.662392
v 0.304521 -1.119578 -6.662391
v 0.308955 -1.148480 -7.255024
v 0.164565 -0.897354 -7.428811
v 0.164565 -0.897354 -24.100327
v 0.164565 -0.448722 -24.578850
v 0.164565 0.448722 -24.578850
v 0.164565 0.897355 -24.100327
v 0.164565 0.897355 -7.428811
v 0.308956 1.148480 -7.255025
vt 0.058097 0.088546
vt 0.059881 0.088901
vt 0.059229 0.130955
vt 0.023795 0.137407
vt 0.078445 0.088633
vt 0.047952 0.088581
vt 0.047758 0.130596
vt 0.035343 0.136655
vt 0.062416 0.088812
vt 0.064211 0.088507
vt 0.063142 0.131066
vt 0.022752 0.133426
vt 0.074326 0.088327
vt 0.076047 0.088587
vt 0.074614 0.131331
vt 0.034317 0.132723
vt 0.024280 0.133698
vt 0.024197 0.135866
vt 0.029978 0.133914
vt 0.068954 0.131195
vt 0.033886 0.134239
vt 0.033811 0.136379
vt 0.029745 0.137968
vt 0.029813 0.136273
vt 0.070110 0.088740
vt 0.052100 0.088724
vt 0.059485 0.087604
vt 0.060409 0.087041
vt 0.080493 0.086873
vt 0.051638 0.087932
vt 0.061979 0.087178
vt 0.079151 0.086145
vt 0.077065 0.086214
vt 0.062857 0.087585
vt 0.070441 0.087939
vt 0.075754 0.086987
vt 0.059911 0.074924
vt 0.060005 0.074969
vt 0.060051 0.084798
vt 0.059866 0.084787
vt 0.078830 0.071880
vt 0.045232 0.071994
vt 0.044402 0.084110
vt 0.079126 0.083618
vt 0.061210 0.075043
vt 0.061304 0.075055
vt 0.062380 0.084850
vt 0.062203 0.084924
vt 0.076367 0.072056
vt 0.076546 0.072040
vt 0.076953 0.083852
vt 0.076767 0.083822
vt 0.068979 0.072676
vt 0.070181 0.084542
vt 0.051340 0.084595
vt 0.052661 0.072711
vt 0.060228 0.074078
vt 0.059989 0.074082
vt 0.060210 0.055726
vt 0.060384 0.055741
vt 0.052654 0.072640
vt 0.045265 0.071939
vt 0.045104 0.054618
vt 0.052932 0.055158
vt 0.060721 0.073981
vt 0.060745 0.055749
vt 0.078833 0.071813
vt 0.078576 0.054243
vt 0.076545 0.071972
vt 0.076289 0.054402
vt 0.060959 0.073955
vt 0.060919 0.055753
vt 0.076366 0.071988
vt 0.068952 0.072614
vt 0.068263 0.055135
vt 0.076106 0.054417
vt 0.059913 0.039074
vt 0.060102 0.039079
vt 0.078327 0.037735
vt 0.053043 0.038609
vt 0.060489 0.039084
vt 0.078146 0.037766
vt 0.075882 0.038068
vt 0.060677 0.039080
vt 0.067563 0.038798
vt 0.075699 0.038087
vt 0.060129 0.024436
vt 0.060292 0.024453
vt 0.053176 0.022299
vt 0.060658 0.024469
vt 0.075529 0.021959
vt 0.075688 0.021897
vt 0.073342 0.022600
vt 0.060823 0.024464
vt 0.067986 0.023046
vt 0.073177 0.022633
vt 0.060763 0.015761
vt 0.060903 0.015818
vt 0.056474 0.012404
vt 0.061248 0.015851
vt 0.071401 0.011454
vt 0.071553 0.011374
vt 0.069341 0.012461
vt 0.061398 0.015819
vt 0.066492 0.013434
vt 0.069186 0.012530
vt 0.061968 0.006974
vt 0.062106 0.007068
vt 0.060933 0.005439
vt 0.062484 0.007125
vt 0.067337 0.004679
vt 0.067475 0.004583
vt 0.065590 0.005991
vt 0.062645 0.007079
vt 0.064397 0.006138
vt 0.065469 0.006088
vt 0.063252 0.004050
vt 0.046805 0.138464
vt 0.064159 0.003830
vt 0.063136 0.004033
vt 0.062866 0.003650
vt 0.064579 0.003429
vt 0.060005 0.085828
vt 0.059535 0.086192
vt 0.044544 0.085901
vt 0.079614 0.084569
vt 0.062796 0.086192
vt 0.062331 0.085902
vt 0.076651 0.084828
vt 0.076066 0.085355
vt 0.070357 0.086286
vt 0.051391 0.086326
vt 0.030086 0.132226
vt 0.073002 0.131292
vt 0.051837 0.130731
vt 0.057604 0.130913
vt 0.034025 0.137991
vt 0.035527 0.134164
vt 0.076892 0.131392
vt 0.024086 0.132072
vt 0.022564 0.135943
vt 0.061530 0.131014
vt 0.046862 0.137940
vt 0.047119 0.137966
vt 0.046442 0.138060
vt 0.046432 0.138155
vt 0.063834 0.003867
vt 0.047062 0.138489
vt 0.045666 0.087595
vt 0.080702 0.084692
vt 0.079306 0.083590
vt 0.062635 0.003484
vt 0.059922 0.005015
vt 0.054066 0.010919
vt 0.047964 0.021495
vt 0.044900 0.038049
vt 0.079010 0.071870
vt 0.078759 0.054235
vt 0.079013 0.071806
vt 0.080048 0.088889
vt 0.078508 0.131444
vn -0.707107 -0.707107 0.000000
vn -0.707107 -0.707107 0.000000
vn -0.707107 -0.707107 0.000000
vn -0.707107 -0.707107 0.000000
vn 0.707107 -0.707107 0.000000
vn 0.707107 -0.707107 0.000000
vn 0.707107 -0.707107 0.000000
vn 0.707107 -0.707107 0.000000
vn -0.707107 0.707107 0.000000
vn -0.707107 0.707107 0.000000
vn -0.707107 0.707107 0.000000
vn -0.707107 0.707107 0.000000
vn 0.707107 0.707107 0.000000
vn 0.707107 0.707107 0.000000
vn 0.707107 0.707107 0.000000
vn 0.707107 0.707107 0.000000
vn -0.729524 0.000000 -0.683955
vn -0.729524 0.000000 -0.683955
vn -0.729524 0.000000 -0.683955
vn -0.729524 0.000000 -0.683955
vn 0.000000 0.729524 -0.683955
vn 0.000000 0.729524 -0.683955
vn 0.000000 0.729524 -0.683955
vn 0.000000 0.729524 -0.683955
vn 0.729524 0.000000 -0.683955
vn 0.729524 0.000000 -0.683955
vn 0.729524 0.000000 -0.683955
vn 0.729524 0.000000 -0.683955
vn 0.000000 -0.729525 -0.683955
vn 0.000000 -0.729525 -0.683955
vn 0.000000 -0.729525 -0.683955
vn 0.000000 -0.729525 -0.683955
vn 0.000000 1.000000 0.000000
vn 0.000000 1.000000 0.000000
vn 0.000000 1.000000 0.000000
vn 0.000000 1.000000 0.000000
vn 0.000000 0.000000 -1.000000
vn 0.000000 0.000000 -1.000000
vn 0.000000 0.000000 -1.000000
vn 0.000000 0.000000 -1.000000
vn 0.000000 -1.000000 -0.000000
vn -0.000000 -1.000000 -0.000000
vn -0.000000 -1.000000 -0.000000
vn 0.000000 -1.000000 -0.000000
vn 1.000000 0.000000 0.000000
vn 1.000000 0.000000 0.000000
vn 1.000000 0.000000 0.000000
vn 1.000000 0.000000 0.000000
vn -1.000000 0.000000 0.000000
vn -1.000000 0.000000 0.000000
vn -1.000000 0.000000 0.000000
vn -1.000000 0.000000 0.000000
vn -0.589362 0.589360 -0.552546
vn -0.589362 0.589360 -0.552546
vn -0.589362 0.589360 -0.552546
vn 0.589362 0.589360 -0.552546
vn 0.589362 0.589360 -0.552546
vn 0.589362 0.589360 -0.552546
vn -0.589362 -0.589360 -0.552546
vn -0.589362 -0.589360 -0.552546
vn -0.589362 -0.589360 -0.552546
vn 0.589362 -0.589360 -0.552546
vn 0.589362 -0.589360 -0.552546
vn 0.589362 -0.589360 -0.552546
vn -0.160906 -0.067964 -0.984627
vn -0.032939 -0.490111 -0.871038
vn -0.123521 -0.243257 -0.962065
vn -0.163764 -0.040064 -0.985686
vn 0.000000 -0.569055 -0.822299
vn 0.043088 -0.464668 -0.884436
vn 0.130549 -0.222107 -0.966243
vn 0.000000 -0.569055 -0.822299
vn -0.160906 0.067964 -0.984627
vn -0.163764 0.040064 -0.985686
vn 0.160906 -0.067964 -0.984627
vn 0.163764 -0.040064 -0.985686
vn 0.160906 0.067964 -0.984627
vn 0.163764 0.040064 -0.985686
vn -0.032939 0.490110 -0.871038
vn -0.123521 0.243256 -0.962065
vn 0.043088 0.464667 -0.884437
vn -0.000000 0.569054 -0.822300
vn 0.000000 0.569054 -0.822300
vn 0.130549 0.222106 -0.966243
vn -0.707105 -0.707109 0.000000
vn -0.707105 -0.707109 0.000000
vn -0.707105 -0.707109 0.000000
vn -0.707105 -0.707109 0.000000
vn 0.706892 -0.706898 -0.024481
vn 0.706892 -0.706898 -0.024485
vn 0.706889 -0.706896 -0.024627
vn 0.706889 -0.706896 -0.024627
vn -0.707105 0.707109 0.000000
vn -0.707105 0.707109 0.000000
vn -0.707105 0.707109 0.000000
vn -0.707105 0.707109 0.000000
vn 0.706892 0.706898 -0.024485
vn 0.706892 0.706898 -0.024481
vn 0.706889 0.706896 -0.024627
vn 0.706889 0.706896 -0.024627
vn -0.000000 1.000000 0.000000
vn 0.000000 1.000000 0.000000
vn 0.000000 1.000000 0.000000
vn -0.000000 1.000000 0.000000
vn -0.000000 -1.000000 0.000000
vn 0.000000 -1.000000 0.000000
vn 0.000000 -1.000000 0.000000
vn -0.000000 -1.000000 0.000000
vn 0.999401 0.000000 -0.034614
vn 0.999394 0.000000 -0.034818
vn 0.999394 0.000000 -0.034818
vn 0.999401 0.000000 -0.034614
vn -1.000000 0.000000 0.000000
vn -1.000000 0.000000 0.000000
vn -1.000000 0.000000 0.000000
vn -1.000000 0.000000 0.000000
vn -0.701120 -0.712808 0.018332
vn -0.701120 -0.712808 0.018332
vn -0.696554 -0.717034 0.025981
vn -0.696714 -0.716888 0.025715
vn -0.050234 -0.998737 0.000974
vn 0.000000 -1.000000 -0.000000
vn 0.000000 -1.000000 -0.000000
vn -0.049975 -0.998750 0.001191
vn -0.999661 0.000000 0.026019
vn -0.999661 0.000000 0.026019
vn -0.999316 0.000000 0.036983
vn -0.999316 0.000000 0.036983
vn 0.701025 -0.712668 -0.025856
vn 0.701024 -0.712668 -0.025859
vn 0.696618 -0.717080 -0.022814
vn 0.696751 -0.716947 -0.022909
vn 0.999316 0.000000 -0.036979
vn 0.999316 0.000000 -0.036979
vn 0.999459 0.000000 -0.032894
vn 0.999459 0.000000 -0.032894
vn -0.701120 0.712808 0.018332
vn -0.701120 0.712808 0.018332
vn -0.696714 0.716888 0.025715
vn -0.696554 0.717034 0.025981
vn 0.000000 1.000000 0.000000
vn -0.076735 0.997050 0.001487
vn -0.076343 0.997080 0.001820
vn 0.000000 1.000000 0.000000
vn 0.701024 0.712668 -0.025859
vn 0.701025 0.712668 -0.025856
vn 0.696751 0.716947 -0.022909
vn 0.696618 0.717080 -0.022814
vn -0.704218 -0.709662 0.021356
vn -0.703867 -0.710000 0.021713
vn 0.000000 -1.000000 0.000000
vn -0.053027 -0.998592 0.001632
vn -0.999524 0.000000 0.030855
vn -0.999524 0.000000 0.030855
vn 0.703549 -0.709925 0.032016
vn 0.704059 -0.709301 0.034540
vn 0.998867 0.000000 0.047584
vn 0.998867 0.000000 0.047584
vn -0.703867 0.710000 0.021713
vn -0.704218 0.709662 0.021356
vn -0.080982 0.996713 0.002492
vn 0.000000 1.000000 0.000000
vn 0.704059 0.709301 0.034540
vn 0.703549 0.709925 0.032016
vn -0.055276 0.003288 0.998466
vn -0.008504 0.104846 0.994452
vn -0.009858 0.099915 0.994947
vn -0.050402 0.008127 0.998696
vn -0.008667 -0.158987 0.987243
vn -0.055909 -0.004068 0.998428
vn -0.054409 -0.006347 0.998499
vn -0.012592 -0.140970 0.989934
vn -0.103659 -0.994610 0.002457
vn -0.107124 -0.994240 0.003287
vn -0.100702 -0.994915 0.001952
vn -0.007590 -0.163922 0.986444
vn -0.007590 -0.163922 0.986444
vn -0.000000 -1.000000 0.000000
vn -0.000000 -1.000000 0.000000
vn -0.000000 1.000000 0.000000
vn -0.000000 1.000000 0.000000
vn -0.007649 0.107961 0.994126
vn -0.007649 0.107961 0.994126
vn -0.153053 0.988214 0.002966
vn -0.157486 0.987514 0.003733
vn -0.162669 0.986668 0.004992
vn -0.727538 -0.682663 0.068270
vn -0.726560 -0.684319 0.061785
vn -0.059962 -0.998188 0.005059
vn -0.108468 -0.994068 0.007917
vn -0.995975 0.000000 0.089627
vn -0.995975 0.000000 0.089627
vn 0.724100 -0.682335 0.100491
vn 0.725654 -0.680463 0.101964
vn 0.990336 0.000000 0.138690
vn 0.990336 0.000000 0.138690
vn -0.726560 0.684319 0.061785
vn -0.727538 0.682663 0.068270
vn -0.091532 0.995772 0.007720
vn 0.000000 1.000000 -0.000000
vn 0.725654 0.680463 0.101964
vn 0.724100 0.682335 0.100491
vn 0.000000 -1.000000 -0.000000
vn -0.164676 0.986274 0.012028
vn -0.685309 -0.610796 0.396586
vn -0.708818 -0.631749 0.313799
vn -0.091165 -0.995150 0.036945
vn -0.124207 -0.991661 0.034366
vn -0.978518 0.000000 0.206160
vn -0.978518 0.000000 0.206160
vn 0.745849 -0.664760 0.042465
vn 0.745917 -0.664820 0.040284
vn 0.998532 0.000000 0.054172
vn 0.998532 0.000000 0.054172
vn -0.708895 0.631818 0.313488
vn -0.685407 0.610883 0.396283
vn -0.138558 0.988804 0.055398
vn 0.000199 1.000000 0.000985
vn 0.745917 0.664820 0.040284
vn 0.745849 0.664760 0.042465
vn 0.000199 -1.000000 0.000985
vn -0.188167 0.980763 0.051931
vn -0.481464 -0.649199 0.588840
vn -0.708737 -0.181597 0.681699
vn -0.107000 -0.989823 0.093818
vn -0.188281 -0.974459 0.122394
vn -0.733622 0.000000 0.679557
vn -0.733622 0.000000 0.679557
vn -0.709508 0.180184 0.681272
vn 0.746320 -0.665180 -0.023279
vn 0.745946 -0.664847 -0.039284
vn 0.995995 0.000000 -0.089408
vn 0.995995 0.000000 -0.089412
vn -0.533696 0.607988 0.587809
vn -0.168740 0.976806 0.131821
vn 0.013901 0.999571 0.025794
vn 0.745944 0.664844 -0.039370
vn 0.746317 0.665177 -0.023458
vn 0.013807 -0.999567 0.025969
vn -0.278852 0.943466 0.179201
vn -0.512333 0.585736 0.628035
vn -0.472191 0.663266 0.580616
vn -0.472191 0.663266 0.580616
vn 0.211229 0.911381 0.353224
vn 0.211229 0.911381 0.353224
vn 0.732568 0.652927 0.192432
vn -0.421178 -0.655933 0.626387
vn -0.073027 0.000000 0.997330
vn -0.073027 0.000000 0.997330
vn -0.073027 0.000000 0.997330
vn -0.073027 0.000000 0.997330
vn 0.510217 0.000000 0.860046
vn 0.510217 0.000000 0.860046
vn 0.510217 0.000000 0.860046
vn 0.510217 0.000000 0.860045
vn 0.998305 0.000000 -0.058192
vn 0.998305 0.000000 -0.058192
vn -0.354016 -0.747856 0.561590
vn -0.354016 -0.747856 0.561590
vn 0.209550 -0.910782 0.355759
vn 0.209550 -0.910782 0.355759
vn 0.732432 -0.652813 0.193335
vn -0.019204 -0.279257 0.960024
vn -0.410687 -0.043213 0.910752
vn -0.381189 -0.081996 0.920854
vn -0.009749 -0.280297 0.959864
vn 0.517539 -0.047853 0.854320
vn 0.028150 -0.282384 0.958888
vn 0.009576 -0.281722 0.959448
vn 0.453801 -0.116480 0.883457
vn -0.410731 0.043272 0.910729
vn -0.019227 0.279640 0.959912
vn -0.009766 0.280682 0.959751
vn -0.381438 0.081894 0.920759
vn 0.028190 0.282775 0.958772
vn 0.517595 0.047922 0.854283
vn 0.454215 0.116360 0.883261
vn 0.009589 0.282111 0.959334
vn 0.000000 0.281731 0.959494
vn 0.000000 0.281731 0.959494
vn 0.000000 -0.281342 0.959607
vn 0.000000 -0.281342 0.959607
vn 0.000000 -1.000000 0.000000
vn 0.000000 -1.000000 0.000000
vn -0.000000 -0.729524 -0.683955
vn -0.000000 -0.729524 -0.683955
vn 0.000000 0.000000 -1.000000
vn 0.000000 0.000000 -1.000000
vn 0.000000 0.729524 -0.683955
vn 0.000000 0.729524 -0.683955
vn -0.000000 1.000000 0.000000
vn -0.000000 1.000000 0.000000
vn -0.652899 -0.705285 -0.276216
vn -0.652899 -0.705285 -0.276216
vn -0.652899 -0.705285 -0.276216
vn -0.652899 -0.705285 -0.276216
vn 0.000000 -0.998813 0.048710
vn 0.000000 -0.998813 0.048710
vn 0.000000 -0.998813 0.048710
vn 0.000000 -0.998813 0.048710
vn -0.999854 0.000000 -0.017103
vn -0.999854 0.000000 -0.017103
vn -0.999854 0.000000 -0.017103
vn -0.999854 0.000000 -0.017103
vn 0.630563 -0.681155 -0.372046
vn 0.630563 -0.681155 -0.372046
vn 0.630563 -0.681155 -0.372046
vn 0.630563 -0.681155 -0.372046
vn 0.983478 0.000000 -0.181027
vn 0.983478 0.000000 -0.181027
vn 0.983478 0.000000 -0.181027
vn 0.983478 0.000000 -0.181027
vn -0.652700 0.705070 -0.277235
vn -0.652700 0.705070 -0.277235
vn -0.652700 0.705070 -0.277235
vn -0.652700 0.705070 -0.277235
vn -0.000000 0.998888 0.047149
vn -0.000000 0.998888 0.047149
vn 0.000000 0.998888 0.047149
vn -0.000000 0.998888 0.047149
vn 0.630312 0.680885 -0.372964
vn 0.630312 0.680885 -0.372964
vn 0.630312 0.680885 -0.372964
vn 0.630312 0.680885 -0.372964
vn 0.000000 -0.998813 0.048710
vn 0.000000 -0.998813 0.048710
vn 0.000000 0.998888 0.047150
vn 0.000000 0.998888 0.047150
s off
g Knife_02
usemtl initialShadingGroup
f 1/1/1 2/2/2 15/3/3 17/136/4
f 3/5/5 4/160/6 18/161/7 20/139/8
f 5/9/9 6/10/10 10/11/11 9/142/12
f 7/13/13 8/14/14 14/15/15 13/134/16
f 9/12/17 11/17/18 16/18/19 15/141/20
s 1
f 129/19/21 130/133/22 13/16/23 12/21/24
s off
f 12/21/25 14/138/26 20/8/27 19/22/28
s 2
f 127/23/29 128/24/30 19/22/31 18/137/32
s 3
f 131/25/33 7/13/34 13/134/35 130/20/36
s 4
f 129/19/37 12/21/38 19/22/39 128/24/40
s 5
f 127/135/41 18/7/42 4/6/43 126/26/44
s off
f 3/5/45 20/139/46 14/15/47 8/14/48
f 15/3/49 2/2/50 5/9/51 9/142/52
f 9/12/53 10/140/54 11/17/55
f 12/21/56 13/16/57 14/138/58
f 15/141/59 16/18/60 17/4/61
f 18/137/62 19/22/63 20/8/64
s 6
f 2/2/65 1/1/66 21/27/67 22/28/68
f 126/26/69 4/6/70 23/149/71 125/30/72
f 5/9/73 2/2/65 22/28/68 24/31/74
f 4/160/70 3/5/75 25/32/76 23/29/71
f 3/5/75 8/14/77 26/33/78 25/32/76
f 6/10/79 5/9/73 24/31/74 27/34/80
f 7/13/81 131/25/82 132/35/83 28/36/84
f 8/14/77 7/13/81 28/36/84 26/33/78
s off
f 67/37/85 68/38/86 41/39/87 42/40/88
s 8
f 65/41/89 66/157/90 43/151/91 44/44/92
s off
f 61/45/93 62/46/94 38/47/95 37/48/96
s 9
f 63/49/97 64/50/98 40/51/99 39/52/100
s 10
f 75/53/101 63/49/102 39/52/103 74/54/104
s 11
f 73/55/105 43/43/106 66/42/107 72/56/108
s 12
f 65/41/109 44/44/110 40/51/111 64/50/112
s off
f 41/39/113 68/38/114 61/45/115 37/48/116
s 13
f 30/57/117 29/58/118 45/59/119 46/60/120
s 11
f 71/61/121 32/62/122 47/63/123 70/64/124
s 14
f 33/65/125 30/57/126 46/60/127 48/66/128
s 8
f 32/159/129 31/67/130 49/68/131 47/158/132
s 12
f 31/67/133 36/69/134 50/70/135 49/68/136
s 13
f 34/71/137 33/65/138 48/66/139 51/72/140
s 10
f 35/73/141 76/74/142 77/75/143 52/76/144
s 9
f 36/69/145 35/73/146 52/76/147 50/70/148
s 13
f 46/60/120 45/59/119 53/77/149 54/78/150
s 11
f 70/64/124 47/63/123 55/156/151 69/80/152
s 14
f 48/66/128 46/60/127 54/78/153 56/81/154
s 8
f 47/158/132 49/68/131 57/82/155 55/79/156
s 12
f 49/68/136 50/70/135 58/83/157 57/82/158
s 13
f 51/72/140 48/66/139 56/81/159 59/84/160
s 10
f 52/76/144 77/75/143 78/85/161 60/86/162
s 9
f 50/70/148 52/76/147 60/86/163 58/83/164
s 16
f 33/65/165 34/71/166 62/46/167 61/45/168
s 10
f 76/74/142 35/73/141 63/49/102 75/53/101
s 9
f 35/73/146 36/69/145 64/50/98 63/49/97
s 12
f 31/67/133 65/41/109 64/50/112 36/69/134
s 8
f 31/67/130 32/159/129 66/157/90 65/41/89
s 11
f 72/56/108 66/42/107 32/62/122 71/61/121
s 16
f 29/58/169 30/57/170 68/38/171 67/37/172
f 61/45/168 68/38/171 30/57/170 33/65/165
s 11
f 45/59/173 70/64/124 69/80/152 53/77/174
f 29/58/175 71/61/121 70/64/124 45/59/173
s 16
f 67/37/172 72/56/176 71/61/177 29/58/169
s 11
f 42/40/178 73/55/105 72/56/108 67/37/179
s 10
f 62/46/180 75/53/101 74/54/104 38/47/181
s 16
f 34/71/166 76/74/182 75/53/183 62/46/167
s 10
f 77/75/143 76/74/142 34/71/184 51/72/185
f 78/85/161 77/75/143 51/72/185 59/84/186
s 13
f 54/78/150 53/77/149 79/87/187 80/88/188
s 11
f 53/77/174 69/80/152 81/89/189 79/87/190
s 14
f 56/81/154 54/78/153 80/88/191 82/90/192
s 8
f 55/79/156 57/82/155 83/91/193 84/92/194
s 12
f 57/82/158 58/83/157 85/93/195 83/91/196
s 13
f 59/84/160 56/81/159 82/90/197 86/94/198
s 10
f 60/86/162 78/85/161 88/95/199 87/96/200
s 9
f 58/83/164 60/86/163 87/96/201 85/93/202
s 11
f 69/80/152 55/156/151 84/155/203 81/89/189
s 10
f 78/85/161 59/84/186 86/94/204 88/95/199
s 13
f 80/88/188 79/87/187 89/97/205 90/98/206
s 11
f 79/87/190 81/89/189 91/99/207 89/97/208
s 14
f 82/90/192 80/88/191 90/98/209 92/100/210
s 8
f 84/92/194 83/91/193 93/101/211 94/102/212
s 12
f 83/91/196 85/93/195 95/103/213 93/101/214
s 13
f 86/94/198 82/90/197 92/100/215 96/104/216
s 10
f 87/96/200 88/95/199 98/105/217 97/106/218
s 9
f 85/93/202 87/96/201 97/106/219 95/103/220
s 11
f 81/89/189 84/155/203 94/154/221 91/99/207
s 10
f 88/95/199 86/94/204 96/104/222 98/105/217
s 13
f 90/98/206 89/97/205 99/107/223 100/108/224
s 11
f 89/97/208 91/99/207 101/109/225 99/107/226
s 13
f 92/100/227 90/98/228 100/108/224 102/110/229
s 8
f 94/102/212 93/101/211 103/111/230 104/112/231
s 12
f 93/101/214 95/103/213 105/113/232 103/111/233
s 13
f 96/104/216 92/100/215 102/110/229 106/114/234
s 10
f 97/106/218 98/105/217 108/115/235 107/116/236
s 9
f 95/103/220 97/106/219 107/116/237 105/113/238
s 11
f 91/99/207 94/154/221 104/153/239 101/109/225
s 10
f 98/105/217 96/104/222 106/114/240 108/115/235
s 13
f 109/117/241 110/147/242 108/115/243 106/114/234
s 10
f 107/116/236 108/115/235 110/147/244 111/119/245
s 13
f 102/110/229 109/117/241 106/114/234
s 9
f 111/119/246 105/113/238 107/116/237
s 13
f 102/110/229 100/108/224 112/120/247 109/117/241
s off
f 112/145/248 113/143/249 110/118/250 109/146/251
f 111/148/252 110/118/253 113/143/254 114/144/255
s 12
f 103/111/233 105/113/232 111/119/256 114/122/257
s 13
f 112/120/247 100/108/224 99/107/223
f 99/107/223 101/109/258 113/121/259 112/120/247
s 11
f 114/152/260 113/121/261 101/109/225 104/153/239
s 8
f 103/111/230 114/122/262 104/112/231
s 18
f 42/40/263 41/39/264 115/123/265 116/124/266
f 44/44/267 43/151/268 117/150/269 118/126/270
f 37/48/271 38/47/272 119/127/273 120/128/274
f 39/52/275 40/51/276 121/129/277 122/130/278
f 41/39/264 37/48/271 120/128/274 115/123/265
f 38/47/272 74/54/279 123/131/280 119/127/273
f 40/51/276 44/44/267 118/126/270 121/129/277
f 43/43/268 73/55/281 124/132/282 117/125/269
f 73/55/281 42/40/263 116/124/266 124/132/282
f 74/54/279 39/52/275 122/130/278 123/131/280
s 6
f 1/1/66 126/26/69 125/30/72 21/27/67
s 5
f 17/136/283 127/135/41 126/26/44 1/1/284
s 2
f 17/4/285 16/18/286 128/24/30 127/23/29
s 4
f 11/17/287 129/19/37 128/24/40 16/18/288
s 1
f 11/17/289 10/140/290 130/133/22 129/19/21
s 3
f 6/10/291 131/25/33 130/20/36 10/11/292
s 6
f 132/35/83 131/25/82 6/10/79 27/34/80
s off
f 22/28/293 21/27/294 116/124/295 115/123/296
s 21
f 21/27/297 125/30/298 124/132/299 116/124/300
s off
f 24/31/301 22/28/302 115/123/303 120/128/304
f 23/29/305 25/32/306 118/126/307 117/150/308
f 25/32/309 26/33/310 121/129/311 118/126/312
f 27/34/313 24/31/314 120/128/315 119/127/316
s 22
f 28/36/317 132/35/318 123/131/319 122/130/320
s off
f 26/33/321 28/36/322 122/130/323 121/129/324
s 21
f 125/30/298 23/149/325 117/125/326 124/132/299
s 22
f 132/35/318 27/34/327 119/127/328 123/131/319
